<?xml version="1.0" encoding="UTF-8" standalone="no"?>
<!-- Generator: Adobe Illustrator 20.1.0, SVG Export Plug-In . SVG Version: 6.00 Build 0)  -->

<svg
   xmlns:dc="http://purl.org/dc/elements/1.1/"
   xmlns:cc="http://creativecommons.org/ns#"
   xmlns:rdf="http://www.w3.org/1999/02/22-rdf-syntax-ns#"
   xmlns:svg="http://www.w3.org/2000/svg"
   xmlns="http://www.w3.org/2000/svg"
   xmlns:sodipodi="http://sodipodi.sourceforge.net/DTD/sodipodi-0.dtd"
   xmlns:inkscape="http://www.inkscape.org/namespaces/inkscape"
   version="1.1"
   id="Layer_1"
   x="0px"
   y="0px"
   viewBox="0 0 185 185"
   xml:space="preserve"
   inkscape:version="0.91 r13725"
   sodipodi:docname="calendar.svg"
   width="185"
   height="185"><metadata
     id="metadata48"><rdf:RDF><cc:Work
         rdf:about=""><dc:format>image/svg+xml</dc:format><dc:type
           rdf:resource="http://purl.org/dc/dcmitype/StillImage" /><dc:title></dc:title></cc:Work></rdf:RDF></metadata><defs
     id="defs46" /><sodipodi:namedview
     pagecolor="#ffffff"
     bordercolor="#666666"
     borderopacity="1"
     objecttolerance="10"
     gridtolerance="10"
     guidetolerance="10"
     inkscape:pageopacity="0"
     inkscape:pageshadow="2"
     inkscape:window-width="1360"
     inkscape:window-height="705"
     id="namedview44"
     showgrid="false"
     inkscape:zoom="3.570348"
     inkscape:cx="46.736405"
     inkscape:cy="113.30631"
     inkscape:window-x="312"
     inkscape:window-y="1042"
     inkscape:window-maximized="1"
     inkscape:current-layer="UWCVVq.tif"
     showguides="false" /><style
     type="text/css"
     id="style3">
	.st0{fill:#464E5A;}
	.st1{fill:#407DBF;}
	.st2{fill:#F3F3F4;}
</style><g
     id="UWCVVq.tif"
     transform="translate(0,52.800062)"><g
       id="g6"
       transform="translate(13.949953,-29.277891)"><path
         class="st0"
         d="m 147.6,115.5 c 0,5.5 -4.4,10.1 -9.9,10.1 l -0.1,0 c -39.3,-0.1 -78.6,-0.1 -118,-0.1 -7.5,0 -10,-2.4 -10,-9.7 l 0,-92.5 c 0,-6.9 2.6,-9.5 9.7,-9.6 1.8,0 3.7,0.1 5.5,0 2.5,-0.2 4,0.2 4,3.4 0,3.1 -1.3,3.7 -3.9,3.4 -1,-0.1 0,0 -3,0 -5.541712,0.142687 -5.654388,-0.134886 -5.6,6.7 l 0.1,26.2 c -0.0049,7.184399 9.75e-4,7.100975 4.8,7.2 28.5,-0.2 57,-0.1 85.5,-0.1 1.2,0 2.3,-0.1 3.5,0 1,0.1 2.6,-0.7 2.7,1.2 0,1.6 -1.2,2.2 -2.7,2.2 -4.2,0 -8.4,0.4 -12.5,-0.1 -5,-0.5 -4.9,2.3 -4.7,5.7 0.2,3.1 -0.9,6.5 4.5,5.9 4.1,-0.5 8.3,-0.1 12.5,-0.1 1.5,0 2.9,0.3 2.9,2 0,2.2 -1.9,1.3 -3,1.4 -4.3,0.1 -8.7,0.2 -13,0 -2.6,-0.1 -4.2,0.4 -3.9,3.5 0.2,1.7 -0.5,3.3 -2.3,3.2 -2,-0.1 -1.1,-2.1 -1.1,-3.2 0.1,-2.7 -1.2,-3.5 -3.6,-3.4 -4.3,0.1 -8.7,0 -13,0 -1.5,0 -2.9,-0.5 -3,-2 -0.1,-2.2 1.8,-1.4 2.9,-1.4 4.5,-0.1 9,-0.1 13.5,0 2.4,0.1 3.8,-0.8 3.1,-3.1 -0.9,-2.8 3,-7.8 -3,-8.3 -5.5,-0.5 -11,-0.1 -16.5,-0.1 -3.3,0 -3.2,2.1 -3.2,4.4 0,0.9 0.4,2.2 -1.1,2.3 -1.2,0.1 -1.3,-1 -1.2,-1.8 0.9,-5.2 -2.5,-5.1 -6,-4.9 -3.2,0.1 -6.300039,0.01579 -9.5,0 -7.096027,-0.03501 -7.094545,-0.0696 -7.3,5.5 -0.09708,0.950488 -0.8,2 -1.8,2 -1.5,0.1 -1.052438,-1.350488 -1.1,-2.2 -0.120339,-5.415095 -0.154502,-5.459958 -5.9,-5.4 l -13,0 c -3.440737,-9.75e-4 -3.502925,-0.04269 -3.5,3.4 0,3.8 0,0 0,3.8 0.03019,4.219915 0.0025,4.172623 8.802925,4.093174 L 32.6,75.3 c 1.550106,-0.02013 4.270021,-0.30964 4.3,1.4 0,2.609852 -2.779308,2.17704 -4.359746,2.129979 l -7.428553,-0.221203 c -8.940466,0.270445 -8.731616,0.311563 -8.811701,6.181796 0.159958,5.62892 0.280297,5.54947 7.4,5.609428 3.3,0.1 6.7,0 10,0 1.6,0 3.159958,-0.320127 3.2,1.679873 C 36.940084,94.08197 35.250106,93.7 33.8,93.7 c -3.7,0.1 -7.3,0 -11,0 -6.5,0 -6.508282,-0.452486 -6.450488,5.854388 0.04756,5.190252 0.0088,5.602922 5.850488,5.745612 l 11.5,0 c 5.635861,-0.0446 5.555363,-0.1039 5.5,-4.6 -0.05146,-1.29805 0.1,-2.2 0.2,-3.4 3.5,0.4 3.4,2.8 3.3,5.1 0.04756,2.74951 0.111701,2.80293 4.6,2.7 l 12.1,0 c 4.788695,0 4.854388,-0.004 5,-3.3 0.04756,-2.695125 0.5,-3.9 2.7,-4.7 0.2,0.2 0.5,0.4 0.6,0.6 0.6,9.1 0.5,7.2 14.3,7.6 0.8,0 1.5,0 2.3,-0.1 1.6,-0.1 3.1,0.4 3.1,2 0,2.2 -2,1.3 -3,1.3 -21,0.1 -42,0.1 -63,0 -3.6,0 -5.5,0.5 -5.3,4.7 0.2,3.7 0.4,6.1 5.4,6.1 38.2,-0.2 76.3,-0.2 114.5,0 5.1,0 5.14756,0.0251 5.2,-6.1 0.004,-4.72281 -0.0185,-4.70098 -5.3,-4.6 l -12.53501,0.14004 c -1.52013,-0.07 -2.807,-0.073 -2.86499,-1.68008 0.0276,-1.59501 1.24942,-1.77343 3,-1.75996 l 13,0.1 c 4.45731,-0.0932 4.47622,-0.0758 4.5,-5.8 -0.1,-3 1,-6.6 -4.4,-5.9 l -11.5,0.1 c -2.76279,-0.03501 -4.2416,-0.05136 -4.23742,-1.639831 0.0398,-1.443006 1.59719,-1.542665 4.18753,-1.560169 l 13.14989,0 c 1.8,0 3,-0.4 2.8,-2.4 -0.5,-5.6 3.8,-8.7 6.7,-12.4 l 0,39.7 z"
         id="path8"
         inkscape:connector-curvature="0"
         style="fill:#464e5a"
         sodipodi:nodetypes="cscsssccscccccsccscccssccccccscccccsscccsccccccccccscccsscssccccccscccccscccccccccsccccccccccc" /><path
         class="st0"
         d="m 147.6,65.5 c -5.8,-7.3 -7.9,-15.5 -6.7,-24.8 0.3,-2.6 0.2,-5.3 0,-8 -0.3,-3.9 2,-9.3 -1.1,-11.4 -3.9,-2.7 -9.7,-1.1 -14.6,-0.8 -3.7,0.3 -1.6,2.9 -0.8,4.7 1.9,4.5 -0.5,8.5 -5,8.3 -3.4,-0.1 -6.5,-3.4 -5.1,-6.4 2.9,-6.1 1.3,-12.4 1.8,-18.6 0,-0.5 0,-1 0,-1.5 0,-2.5 1,-4.3 3.8,-4.2 2.5,0.1 3.7,2 3.3,4.1 -1.2,6.4 2.3,7.1 7.2,6.6 2.1,-0.2 4.3,0.1 6.5,-0.1 0,0 0.1,0 0.1,0 5.7,-0.5 10.6,4.1 10.6,9.9 l 0,42.2 z"
         id="path10"
         inkscape:connector-curvature="0"
         style="fill:#464e5a" /><path
         class="st1"
         d="m 117.6,99.4 c 0,7.5 -6.1,13.8 -13.5,13.9 -7.7,0.1 -14.2,-6.1 -14.2,-13.7 -0.1,-7.6 6.4,-14 14.1,-13.9 7.4,0.1 13.6,6.3 13.6,13.7 z m -15.4,7.3 c 0.3,-0.1 0.9,-0.2 1.2,-0.6 2.8,-3.9 5.7,-7.7 9,-11.2 0.6,-0.6 0.6,-1.6 -0.2,-2.2 -1,-0.7 -1.9,-0.3 -2.6,0.4 -1.9,2 -4,4 -5.6,6.3 -1.5,2.2 -2.6,2.1 -3.9,0 -0.7,-1.1 -1.5,-2.2 -2.5,-3.1 -1.1,-1 -2.2,-0.6 -2.7,0.8 -0.5,1.5 5.7,9.6 7.3,9.6 z"
         id="path12"
         inkscape:connector-curvature="0"
         style="fill:#407dbf" /><path
         class="st1"
         d="m 53.6,98.4 c -7.4,0.1 -13.8,-6 -14,-13.4 -0.2,-7.7 6,-14.1 13.6,-14.3 7.4,-0.1 13.8,6 14.1,13.4 0.4,7.6 -6,14.1 -13.7,14.3 z m 8.8,-18.7 c 0.2,-1.2 0,-1.8 -0.7,-2 -0.6,-0.2 -1.4,-0.2 -1.8,0.2 -1.3,1 -2.5,2.2 -3.6,3.4 -2.7,3.3 -5.1,7.6 -8.6,0.7 -0.3,-0.7 -1.2,-1.3 -2.1,-0.9 -0.5,0.2 -0.9,0.9 -1,1.5 -0.2,1.1 5.4,8.9 6.6,9 1.515601,-0.243662 3.2,-2.8 4.7,-4.3 1.7,-1.8 3.3,-3.7 4.9,-5.6 0.6,-0.8 1.2,-1.6 1.6,-2 z"
         id="path14"
         inkscape:connector-curvature="0"
         style="fill:#407dbf"
         sodipodi:nodetypes="cccccccccccccccc" /><path
         class="st1"
         d="m 129.3,55.7 c 7.3,-0.1 13.8,6.1 14,13.5 0.2,7.6 -6.1,14.1 -13.8,14.2 -7.5,0.1 -13.7,-5.9 -13.9,-13.4 -0.2,-7.7 6,-14.2 13.7,-14.3 z m 8.70585,8.89805 C 137.60585,62.89805 137.2,61.8 135.8,62.8 c -1.5,1 -2.9,2.3 -3.9,3.8 -2.7,3.9 -5.2,6.5 -8.3,0.4 -0.4,-0.8 -1.4,-1.6 -2.5,-0.8 -1.3,0.9 -0.9,2 -0.2,3 1.3,1.7 2.7,3.4 3.8,5.2 2,3.1 3.6,3.4 5.7,0 1.8,-2.8 4.1,-5.2 6.2,-7.7 0.7,-0.8 0,0 1.40585,-2.10195 z"
         id="path16"
         inkscape:connector-curvature="0"
         style="fill:#407dbf"
         sodipodi:nodetypes="ccccccccccccccc" /><path
         class="st0"
         d="M 37.4,33.8 C 34,33.7 30.8,30.4 32.2,27.4 35,21.3 33.4,15 33.9,8.8 34,7.3 33.8,5.8 34.7,4.5 c 1,-1.4 2.4,-1.7 4,-1.2 1.9,0.6 2.7,2.3 2.3,3.9 -1.3,6.5 2.4,7.1 7.3,6.5 1.5,-0.2 3,0.1 4.5,-0.1 2.8,-0.3 3.3,1.1 3.4,3.5 0,2.6 -0.9,3.6 -3.5,3.4 -2.3,-0.2 -4.7,0.1 -7,-0.1 -4.9,-0.4 -5.3,1.3 -3.2,5.4 2,4 -0.9,8.1 -5.1,8 z"
         id="path18"
         inkscape:connector-curvature="0"
         style="fill:#464e5a" /><path
         class="st0"
         d="m 103.1,20.5 c -0.8,0 -1.7,0 -2.5,0 -5.5,0 -5.5,0 -3.5,5 1.2,2.8 1,5.3 -1.5,7.2 -2.2,1.7 -4.7,1.7 -6.9,-0.1 -2.3,-2 -2.9,-4.6 -1.2,-7.1 1.6,-2.3 1,-4.8 1.1,-7.2 0.1,-3.7 0,-7.3 0,-11 0,-2.3 1.1,-4 3.5,-4 2.4,-0.1 3.6,1.4 3.6,3.8 0,0.7 0.1,1.4 0,2 -0.8,4.2 1.3,5.2 5,4.8 1.8,-0.2 3.7,0 5.5,0 2.3,0 4.5,-0.6 4.6,3.2 0.1,4.1 -2.3,3.6 -4.8,3.6 -0.9,-0.2 -1.9,-0.2 -2.9,-0.2 z"
         id="path20"
         inkscape:connector-curvature="0"
         style="fill:#464e5a" /><path
         class="st0"
         d="M 64.7,33.7 C 61.3,33.6 58.2,30.3 59.7,27.3 62.5,21.2 61,15 61.4,8.8 61.6,6.1 61.2,3 65.1,3.1 c 3.4,0.1 3.7,3 3.4,5.5 -0.6,4.2 1.1,5.7 5.2,5.1 2,-0.3 4,0 6,-0.1 2.5,-0.1 4,0.1 4,3.3 0,3 -1.2,3.7 -3.8,3.5 -2.5,-0.2 -5,0.1 -7.5,-0.1 -3.9,-0.2 -4.7,1.1 -2.9,4.6 2.3,4.8 -0.2,9 -4.8,8.8 z"
         id="path22"
         inkscape:connector-curvature="0"
         style="fill:#464e5a" /><path
         class="st0"
         d="m 78.2,93.7 c -1.8,0 -3.7,0.1 -5.5,0 -1,-0.1 -2.6,0.7 -2.8,-1.1 -0.1,-1.6 1.1,-2.3 2.6,-2.3 4.2,0 8.3,0 12.5,0 0.8,0 2.2,-0.5 2.3,1 0,1.3 -0.7,2.2 -2.2,2.2 -2.2,0.2 -4.6,0.2 -6.9,0.2 0,0 0,0 0,0 z"
         id="path24"
         inkscape:connector-curvature="0"
         style="fill:#464e5a" /><path
         class="st0"
         d="m 30.1,48.5 c 0.0326,1.335011 0.05458,4.709691 -1.8,4.7 -1.802259,-0.0094 -1.762579,-2.982876 -1.8,-5.4 0,-2 0,0 0,-2 0.1,-1.3 -0.1,-3 1.8,-3 1.8,0 1.7,1.7 1.8,3 z"
         id="path26"
         inkscape:connector-curvature="0"
         style="fill:#464e5a"
         sodipodi:nodetypes="csccscc" /><path
         class="st0"
         d="m 130.8,47.8 c -0.0515,1.649512 0.0563,3.675244 -2.1,3.7 -2.18485,0.02508 -2,-2.4 -2.1,-3.9 -0.1,-1.8 -0.62378,-3.877194 2.12671,-4 2.23353,0.002 2.09122,1.934507 2.07329,4.2 z"
         id="path34"
         inkscape:connector-curvature="0"
         style="fill:#464e5a"
         sodipodi:nodetypes="csccc" /><path
         class="st0"
         d="m 117.9,87.3 c -2.7,-1.1 -3.7,-2.8 -3,-5.7 2.8,1 3.6,2.8 3,5.7 z"
         id="path36"
         inkscape:connector-curvature="0"
         style="fill:#464e5a" /><path
         class="st2"
         d="m 102.2,106.7 c -1.7,0 -7.9,-8.1 -7.4,-9.6 0.5,-1.4 1.5,-1.8 2.7,-0.8 1,0.9 1.8,2 2.5,3.1 1.4,2.1 2.4,2.2 3.9,0 1.6,-2.3 3.7,-4.2 5.6,-6.3 0.7,-0.8 1.7,-1.2 2.6,-0.4 0.8,0.6 0.8,1.6 0.2,2.2 -3.3,3.5 -6.3,7.3 -9,11.2 -0.1,0.4 -0.8,0.4 -1.1,0.6 z"
         id="path38"
         inkscape:connector-curvature="0"
         style="fill:#f3f3f4" /><path
         class="st2"
         d="m 62.4,79.7 c -0.4,0.4 -1,1.2 -1.6,1.9 -1.6,1.9 -2.952438,4.1961 -4.652438,5.9961 -1.5,1.5 -3.63001,3.9078 -4.947562,3.9039 -1.2,-0.1 -6.8,-7.9 -6.6,-9 0.1,-0.6 0.5,-1.2 1,-1.5 0.9,-0.4 1.7,0.2 2.1,0.9 3.5,7 5.9,2.7 8.6,-0.7 1,-1.3 2.3,-2.4 3.6,-3.4 0.4,-0.3 1.3,-0.3 1.8,-0.2 0.6,0.2 0.9,0.9 0.7,2.1 z"
         id="path40"
         inkscape:connector-curvature="0"
         style="fill:#f3f3f4"
         sodipodi:nodetypes="ccccccccccc" /><path
         class="st2"
         d="m 138.00585,64.647562 c -0.7,0.8 0,0 -1.30585,2.052438 -2.1,2.6 -4.4,5 -6.2,7.7 -2.2,3.4 -3.8,3 -5.7,0 -1.2,-1.8 -2.6,-3.4 -3.8,-5.2 -0.7,-1 -1.1,-2.1 0.2,-3 1.1,-0.7 2.1,0 2.5,0.8 3.1,6.1 5.6,3.5 8.3,-0.4 1,-1.5 2.4,-2.8 3.9,-3.8 1.3,-1 1.70585,0.04756 2.10585,1.847562 z"
         id="path42"
         inkscape:connector-curvature="0"
         style="fill:#f3f3f4"
         sodipodi:nodetypes="cccccccccc" /></g><path
       class="st0"
       d="m 68.275764,19.161028 c 0.0326,1.335011 0.05458,4.709691 -1.8,4.7 -1.802259,-0.0094 -1.762579,-2.982876 -1.8,-5.4 0,-2 0,0 0,-2 0.1,-1.3 -0.1,-3 1.8,-3 1.8,0 1.7,1.7 1.8,3 z"
       id="path26-0"
       inkscape:connector-curvature="0"
       style="fill:#464e5a"
       sodipodi:nodetypes="csccscc" /><path
       class="st0"
       d="m 95.586734,19.047524 c 0.0326,1.335011 0.05458,4.709691 -1.8,4.7 -1.802259,-0.0094 -1.762579,-2.982876 -1.8,-5.4 0,-2 0,0 0,-2 0.1,-1.3 -0.1,-3 1.8,-3 1.8,0 1.7,1.7 1.8,3 z"
       id="path26-9"
       inkscape:connector-curvature="0"
       style="fill:#464e5a"
       sodipodi:nodetypes="csccscc" /><path
       class="st0"
       d="m 122.13948,19.12956 c 0.0326,1.335011 0.0546,4.709691 -1.8,4.7 -1.80226,-0.0094 -1.76258,-2.982876 -1.8,-5.4 0,-2 0,0 0,-2 0.1,-1.3 -0.1,-3 1.8,-3 1.8,0 1.7,1.7 1.8,3 z"
       id="path26-2"
       inkscape:connector-curvature="0"
       style="fill:#464e5a"
       sodipodi:nodetypes="csccscc" /></g></svg>