<?xml version="1.0" encoding="UTF-8" standalone="no"?>
<!-- Generator: Adobe Illustrator 20.1.0, SVG Export Plug-In . SVG Version: 6.00 Build 0)  -->

<svg
   xmlns:dc="http://purl.org/dc/elements/1.1/"
   xmlns:cc="http://creativecommons.org/ns#"
   xmlns:rdf="http://www.w3.org/1999/02/22-rdf-syntax-ns#"
   xmlns:svg="http://www.w3.org/2000/svg"
   xmlns="http://www.w3.org/2000/svg"
   xmlns:sodipodi="http://sodipodi.sourceforge.net/DTD/sodipodi-0.dtd"
   xmlns:inkscape="http://www.inkscape.org/namespaces/inkscape"
   version="1.1"
   id="Layer_1"
   x="0px"
   y="0px"
   viewBox="0 0 140 140"
   xml:space="preserve"
   inkscape:version="0.91 r13725"
   sodipodi:docname="location.svg"
   width="140"
   height="140"><metadata
     id="metadata3474"><rdf:RDF><cc:Work
         rdf:about=""><dc:format>image/svg+xml</dc:format><dc:type
           rdf:resource="http://purl.org/dc/dcmitype/StillImage" /><dc:title></dc:title></cc:Work></rdf:RDF></metadata><defs
     id="defs3472" /><sodipodi:namedview
     pagecolor="#ffffff"
     bordercolor="#666666"
     borderopacity="1"
     objecttolerance="10"
     gridtolerance="10"
     guidetolerance="10"
     inkscape:pageopacity="0"
     inkscape:pageshadow="2"
     inkscape:window-width="1360"
     inkscape:window-height="705"
     id="namedview3470"
     showgrid="false"
     inkscape:zoom="2.5246173"
     inkscape:cx="76.371845"
     inkscape:cy="58.211377"
     inkscape:window-x="312"
     inkscape:window-y="1042"
     inkscape:window-maximized="1"
     inkscape:current-layer="Layer_1" /><style
     type="text/css"
     id="style3443">
	.st0{fill:#F7F9FC;}
	.st1{fill:#3E80BE;}
</style><g
     id="_x34_VbXqE.tif"
     transform="translate(-9.7563254,0.4397677)"><g
       id="g3446"><path
         class="st0"
         d="m 87.3,52.9 c 3.9,0 7.8,0 11.7,0 1.1,0 2.5,0.1 2.6,-1.5 0.1,-1.7 -1.2,-2 -2.5,-2 -7.7,0 -15.4,0 -23.1,0 -1.3,0 -2.8,0.1 -2.8,1.8 -0.1,1.8 1.5,1.7 2.7,1.7 3.8,0 7.6,0 11.4,0 z m 0.4,9.6 c -4,0 -8.1,0 -12.1,0 -1,0 -2.2,0.1 -2.3,1.4 -0.1,1.6 1,1.8 2.3,1.8 7.8,0 15.7,0 23.5,0 1.2,0 2.4,0 2.4,-1.6 0,-1.6 -1.3,-1.6 -2.4,-1.6 -3.8,-0.1 -7.6,0 -11.4,0 z m -0.5,16.2 c 3.9,0 7.8,0 11.7,0 1.1,0 2.4,0.1 2.6,-1.5 0.1,-1.6 -1.1,-1.7 -2.3,-1.7 -7.8,0 -15.7,0 -23.5,0 -1.2,0 -2.4,0.1 -2.4,1.7 0.1,1.6 1.4,1.6 2.5,1.6 3.8,-0.1 7.6,-0.1 11.4,-0.1 z m 0,12.9 c 3.8,0 7.6,0 11.4,0 1.2,0 2.8,0.3 2.9,-1.5 0.1,-1.9 -1.5,-1.7 -2.7,-1.7 -7.6,0 -15.1,0 -22.7,0 -1.2,0 -2.8,-0.2 -2.7,1.7 0.1,1.8 1.7,1.5 2.9,1.5 3.6,0 7.3,0 10.9,0 z M 61.1,68 c 2.4,-0.8 3.9,-2.8 5.7,-4.2 0.9,-0.7 2.8,-1.5 1.8,-2.8 -1.2,-1.6 -2.4,0.2 -3.4,0.9 -1.9,1.3 -3.5,4.2 -6.2,1.1 -0.2,-0.3 -1,-0.2 -1.4,-0.1 -0.5,0.2 -0.8,0.7 -0.5,1.2 0.9,1.6 2.2,2.9 4,3.9 z M 58.6,49.8 c -1,0 -1.7,0.4 -1.5,1.1 0.4,1.7 2,2.5 3.1,3.7 0.9,1 1.8,0.4 2.7,-0.3 1.8,-1.4 3.5,-2.9 5.2,-4.3 0.6,-0.5 1.1,-1.2 0.6,-1.9 -0.5,-0.8 -1.3,-0.5 -2,-0.1 -2.7,1.1 -4.5,6 -8.1,1.8 z m 7.3,26.9 C 65.7,75.2 64.8,74 63,74 c -2,0 -3.1,1.2 -3.1,3.1 0,1.7 1.1,2.8 2.9,2.9 2,0 3,-1.2 3.1,-3.3 z M 63,92.9 c 1.9,-0.3 3,-1.3 2.9,-3.3 -0.1,-1.8 -1.2,-2.8 -3,-2.7 -2,0.1 -3,1.3 -2.9,3.2 0.1,1.7 1.2,2.7 3,2.8 z"
         id="path3448"
         inkscape:connector-curvature="0"
         style="fill:#f7f9fc" /><path
         class="st1"
         d="m 121.2,116.6 c -1.1,2.4 -3.3,4.2 -6,4.7 -1.9,0.4 -3.9,0.4 -6.1,0.4 -20.7,-0.3 -41.4,-0.1 -62.1,-0.1 -8.2,0 -10.4039,-3.7 -10,-13.1 L 37,33 c -1,-9.7 1.6,-13.5 9.6,-13.5 l 1.5,0 c 7.7,0 7.7,0 7.3,7.8 -0.1,2 -0.7,2.5 -2.7,2.7 -4.7,0.3 -6.3,2.8 -5.7,8.5 l 0.1,62.7 c 0.0883,8.91211 0.01755,8.9156 10.8,9.2 l 39.429979,0.0501 C 111.35095,110.12955 111.32998,110.11971 111.5,104.1 l 0,-67.4 c 0,-4.9 -1.1,-6.1 -6.2,-6.7 -1.8,-0.2 -2.2,-0.9 -2.3,-2.6 -0.4,-7.8 -0.5,-7.8 7.6,-7.8 7.5,0 9.8,0.9 11.6,5.2 0.3,0.8 0.4,1.8 0.4,2.7 l 0,0 0,84.9 0,-4.48136 c 0.035,0.4849 0.29015,5.28115 -0.5,6.68136 z"
         id="path3450"
         inkscape:connector-curvature="0"
         style="fill:#3e80be"
         sodipodi:nodetypes="cccsccsscccccccsccsccccccc" /><path
         class="st1"
         d="M 81.255138,11.992558 C 84.155138,13.392558 86.5,14.8 87.1,18.3 c 0.2,0.9 0.9,1.2 1.7,1.2 l 1.9,0 c 3.940737,-0.120856 8.664517,0.01111 9.144637,1.145612 1.032563,0.954984 0.550483,8.404876 0.450483,12.904876 0,1.3 -1.69512,1.149512 -2.49512,1.149512 l -35.9,0 c -1.7,0 -2.546587,-0.8 -2.446587,-2.3 l -0.09902,-5.213434 C 59.28792,23.687197 58.6,23 60.3,20.5 c 1.4039,-1.784995 6.400975,-1.095125 9.9,-1.1 1.470368,-9.75e-4 2.2,0.2 2.4,-1.2 0.5,-3.3 2.249682,-4.570021 4.80482,-5.997378 1.39759,-0.337421 2.682707,-0.522538 3.850318,-0.210064 z M 79.9,15.9 c -1.9,0.2 -3.2,1.2 -3.2,3.1 0,1.9 1.3,3.1 3.1,3.1 1.9,0 3.1,-1.2 3.2,-3.1 0.1,-1.9 -1.3,-2.8 -3.1,-3.1 z"
         id="path3452"
         inkscape:connector-curvature="0"
         style="fill:#3e80be"
         sodipodi:nodetypes="ccscccsscsccccccsssc" /><path
         class="st1"
         d="m 87.3,52.9 c -3.8,0 -7.6,0 -11.3,0 -1.3,0 -2.8,0.1 -2.7,-1.7 0,-1.7 1.5,-1.8 2.8,-1.8 7.7,0 15.4,0 23.1,0 1.3,0 2.7,0.3 2.5,2 -0.1,1.5 -1.5,1.5 -2.6,1.5 -4,0 -7.9,0 -11.8,0 z"
         id="path3454"
         inkscape:connector-curvature="0"
         style="fill:#3e80be" /><path
         class="st1"
         d="m 87.7,62.5 c 3.8,0 7.6,0 11.4,0 1.1,0 2.4,0 2.4,1.6 0,1.6 -1.3,1.6 -2.4,1.6 -7.8,0 -15.7,0 -23.5,0 -1.2,0 -2.4,-0.3 -2.3,-1.8 0.1,-1.3 1.2,-1.4 2.3,-1.4 4,0 8.1,0 12.1,0 z"
         id="path3456"
         inkscape:connector-curvature="0"
         style="fill:#3e80be" /><path
         class="st1"
         d="m 87.2,78.7 c -3.8,0 -7.6,0 -11.4,0 -1.2,0 -2.4,0 -2.5,-1.6 -0.1,-1.6 1.2,-1.7 2.4,-1.7 7.8,0 15.7,0 23.5,0 1.2,0 2.4,0.1 2.3,1.7 -0.1,1.6 -1.4,1.5 -2.6,1.5 -3.9,0.1 -7.8,0.1 -11.7,0.1 z"
         id="path3458"
         inkscape:connector-curvature="0"
         style="fill:#3e80be" /><path
         class="st1"
         d="m 87.2,91.6 c -3.7,0 -7.3,0 -11,0 -1.2,0 -2.8,0.3 -2.9,-1.5 -0.1,-1.9 1.5,-1.7 2.7,-1.7 7.6,0 15.1,0 22.7,0 1.2,0 2.8,-0.2 2.7,1.7 -0.1,1.8 -1.7,1.5 -2.9,1.5 -3.7,0 -7.5,0 -11.3,0 z"
         id="path3460"
         inkscape:connector-curvature="0"
         style="fill:#3e80be" /><path
         class="st1"
         d="m 61.1,68 c -1.7,-1 -3.1,-2.3 -4,-3.9 -0.3,-0.5 0.1,-1.1 0.5,-1.2 0.4,-0.2 1.2,-0.2 1.4,0.1 2.7,3.1 4.3,0.3 6.2,-1.1 1,-0.7 2.2,-2.6 3.4,-0.9 1,1.3 -5.542913,6.268632 -6.527643,6.989955 C 61.929784,68.094391 61.304464,68.11837 61.1,68 Z"
         id="path3462"
         inkscape:connector-curvature="0"
         style="fill:#3e80be"
         sodipodi:nodetypes="ccccccsc" /><path
         class="st1"
         d="m 58.6,49.8 c 3.6,4.3 5.4,-0.7 8,-2 0.7,-0.4 1.5,-0.6 2,0.1 0.5,0.8 0,1.4 -0.6,1.9 -5.2,4.3 0,0 -5.2,4.3 -0.8,0.7 -1.7,1.2 -2.7,0.3 -1.1,-1.2 -2.7,-2 -3.1,-3.7 -0.1,-0.6 0.6,-0.9 1.6,-0.9 z"
         id="path3464"
         inkscape:connector-curvature="0"
         style="fill:#3e80be"
         sodipodi:nodetypes="cccccccc" /><path
         class="st1"
         d="m 65.9,76.7 c -0.1,2 -1.2,3.2 -3.1,3.2 -1.7,0 -2.9,-1.1 -2.9,-2.9 0,-1.9 1.1,-3 3.1,-3.1 1.8,0.1 2.7,1.3 2.9,2.8 z"
         id="path3466"
         inkscape:connector-curvature="0"
         style="fill:#3e80be" /><path
         class="st1"
         d="m 63,92.9 c -1.7,-0.2 -2.9,-1.1 -3,-2.8 -0.1,-1.9 1,-3.1 2.9,-3.2 1.8,-0.1 2.9,0.9 3,2.7 0.1,2 -1.1,3 -2.9,3.3 z"
         id="path3468"
         inkscape:connector-curvature="0"
         style="fill:#3e80be" /></g></g></svg>